<svg xmlns="http://www.w3.org/2000/svg" width="70" height="70" fill="none" viewBox="0 0 70 70">
    <path fill="#231F20" d="M57.407 21.758l2.276 11.378-3.176 11.272-11.018 3.895-8.637-11.082s7.41-1.481 12.331-5.207c4.922-3.726 8.256-7.176 8.224-10.256zM12.487 21.758l-2.275 11.378 3.175 11.272 11.018 3.895 8.637-11.082s-7.409-1.481-12.33-5.207c-4.922-3.726-8.256-7.176-8.225-10.256z"/>
    <path fill="#231F20" d="M34.968 37.602c-.18.013-.36.013-.54 0-8.15-1.238-15.527-5.524-20.639-11.991-1.185-1.588-1.693-2.985-1.482-4.033.051-.282.164-.548.33-.78.167-.233.383-.426.633-.564l.106-.064C18.182 17.566 26.268 16 34.99 16c8.722 0 16.808 1.567 21.613 4.17l.106.064c.25.138.467.33.633.563.167.233.28.5.33.78.212 1.06-.296 2.446-1.481 4.033C51.118 32.12 43.71 36.398 35.54 37.54c-.138 0-.36.063-.572.063zM13.45 20.456l.16.265c-.178.095-.332.23-.451.393-.12.163-.2.35-.238.549-.17.867.318 2.116 1.376 3.556 5.016 6.341 12.253 10.54 20.248 11.748.317.032.636.032.952 0 8.02-1.134 15.283-5.348 20.248-11.748 1.058-1.429 1.545-2.689 1.376-3.556-.037-.199-.118-.386-.237-.55-.12-.162-.273-.297-.451-.392-4.763-2.594-12.701-4.128-21.37-4.128-8.668 0-16.606 1.534-21.327 4.096l-.286-.233z"/>
    <path fill="#231F20" d="M24.511 48.61h-.095L13.45 44.78c-.043-.012-.082-.035-.114-.066-.031-.032-.054-.071-.066-.114-1.33-3.81-2.423-7.698-3.27-11.643v-.106c.984-4.964 2.297-11.135 2.307-11.198l.593.127c0 .064-1.312 6.181-2.297 11.124.825 3.833 1.886 7.612 3.176 11.315l10.647 3.693c.953-1.28 6.457-8.668 8.574-10.933l.444.413c-2.254 2.402-8.605 10.976-8.668 11.06-.026.048-.064.089-.11.117-.047.028-.1.043-.155.042zM45.468 48.61c-.047.001-.094-.009-.136-.029-.042-.02-.08-.05-.108-.087-.063-.085-6.414-8.658-8.668-11.06L37 37.02c2.116 2.265 7.62 9.653 8.573 10.934l10.648-3.694c1.29-3.703 2.35-7.481 3.175-11.315-.984-4.942-2.286-11.06-2.297-11.124l.593-.127c0 .064 1.323 6.235 2.307 11.198v.106c-.847 3.945-1.94 7.834-3.27 11.643-.012.043-.035.083-.066.114-.032.032-.071.054-.114.066l-10.997 3.82-.085-.03zM34.99 43.075c.596 0 1.079-.484 1.079-1.08 0-.596-.483-1.08-1.08-1.08-.596 0-1.08.484-1.08 1.08 0 .596.484 1.08 1.08 1.08z"/>
    <path fill="#231F20" d="M34.99 45.202c-2.472.013-4.936-.257-7.346-.804l.138-.593c4.746 1.033 9.659 1.033 14.405 0l.137.582c-2.405.55-4.866.824-7.334.815z"/>
    <path fill="#FF4208" d="M13.504 30.797l-.085.053.095-.053h-.01zM56.475 30.797l.096.053-.096-.053z"/>
    <path fill="#231F20" d="M17.388 29.463l-.19-.56c11.533-3.359 23.78-3.388 35.33-.085l-.19.571c-11.42-3.252-23.524-3.227-34.929.074h-.021z"/>
</svg>
