<svg xmlns="http://www.w3.org/2000/svg" width="70" height="70" fill="none" viewBox="0 0 70 70">
    <path fill="#000" d="M59.123 21.983s0 1.755-3.84 5.856c-1.35 3.223-2.491 6.53-3.417 9.9-3.838-.436-7.7-.63-11.563-.581 0 0-4.682.74-5.9.9l-4.637-1.14-4.842.217-6.607.638-1.858-5.64-1.549-4.1-3.03-3.623-1.14-2.882-.432 6.448c-.105 1.234.043 2.477.435 3.652.392 1.175 1.019 2.258 1.843 3.183 0 0 7.189 6.437 12.531 8.362 5.343 1.925 12.133 3.668 19.595.16 0 0 9.045-4.694 11.973-7.668 0 0 3.201-3.144 3.087-6.71-.114-3.565-.649-6.972-.649-6.972z"/>
    <path fill="#FF4208" d="M11.857 19.728l-.091.068.102-.068h-.011z"/>
    <path fill="#231F20" d="M11.925 20.08v-.102l-.262-.467.262-.102h1.31l-1.139.615h-.068v-.057l-.103.114zm0-.113v.057-.057z"/>
    <path fill="#FF4208" d="M58.109 19.728l.102.068-.102-.068z"/>
    <path fill="#231F20" d="M34.96 38.24c-.193.013-.387.013-.58 0-8.774-1.333-16.713-5.946-22.215-12.907-1.276-1.71-1.823-3.213-1.595-4.34.054-.304.176-.59.355-.841.18-.25.412-.457.681-.607l.114-.068C16.892 16.675 25.585 15 34.983 15c9.399 0 18.09 1.675 23.263 4.488l.114.057c.269.15.502.357.681.607.18.25.3.537.355.84.228 1.14-.319 2.632-1.595 4.34-5.447 7.031-13.42 11.661-22.226 12.908-.204.013-.41.013-.615 0zM11.766 19.785l.17.285c-.19.103-.356.247-.484.423-.128.175-.216.377-.256.59-.182.934.342 2.279 1.481 3.828 5.395 6.838 13.184 11.374 21.793 12.691.342.028.684.028 1.026 0 8.633-1.225 16.45-5.765 21.793-12.657 1.139-1.538 1.663-2.893 1.48-3.827-.041-.212-.128-.412-.253-.587-.126-.175-.288-.32-.475-.427l-.103-.057c-5.08-2.757-13.67-4.409-22.955-4.409-9.284 0-17.874 1.652-22.955 4.42l-.262-.273z"/>
    <path fill="#231F20" d="M14.944 28.032l-.205-.615c13.241-3.842 27.297-3.874 40.556-.09l-.205.614c-13.123-3.752-27.04-3.72-40.146.091z"/>
    <path fill="#231F20" d="M27.122 44.335l-.808-.285c-4.557-1.777-12.19-6.835-13.876-8.977-1.359-1.513-2.211-3.413-2.438-5.434.04-2.834.239-5.664.592-8.476.003-.044.015-.086.035-.125.02-.039.049-.073.083-.1.035-.027.074-.046.117-.057.043-.01.087-.011.13-.003.042.006.083.02.12.041.036.022.068.05.093.084.026.034.044.073.055.114.01.041.012.084.005.126-.337 2.771-.531 5.559-.58 8.35.213 1.886 1.009 3.658 2.278 5.07 1.64 2.062 9.113 7.029 13.602 8.783l.775.273c.04.013.078.034.11.062.033.028.06.062.08.1.018.038.03.08.032.123.003.042-.003.085-.017.126-.026.077-.081.141-.153.18-.072.037-.156.046-.235.025z"/>
    <path fill="#231F20" d="M35.313 45.736c-2.844-.024-5.664-.513-8.35-1.447-.08-.029-.147-.087-.185-.164-.039-.076-.046-.164-.02-.246.013-.04.034-.079.061-.111.028-.033.062-.06.1-.079.039-.019.08-.03.123-.033.043-.002.085.004.126.018 5.06 1.854 10.615 1.854 15.675 0l.251-.103c4.352-1.56 12.292-6.835 13.978-8.92 1.269-1.411 2.066-3.183 2.279-5.07-.046-2.791-.244-5.579-.593-8.35-.007-.085.019-.17.072-.237.052-.068.129-.113.213-.127.086-.01.172.014.24.068.069.053.113.13.125.217.353 2.812.551 5.641.592 8.475-.227 2.021-1.08 3.921-2.438 5.434-1.777 2.279-9.74 7.508-14.274 9.114l-.228.091c-2.466.976-5.095 1.474-7.747 1.47zM18.214 38.172c-.074 0-.145-.026-.203-.071-.057-.045-.098-.109-.116-.18-.868-3.36-1.987-6.65-3.35-9.843-.034-.08-.035-.17-.003-.252.032-.08.095-.146.175-.18.038-.018.08-.027.122-.027.043 0 .085.007.124.023.04.016.075.04.105.07.03.03.054.065.07.104 1.334 3.138 2.445 6.366 3.327 9.66 4.4-.654 8.862-.792 13.294-.41.086.01.165.05.22.117.055.066.083.15.076.237-.002.043-.014.084-.033.123-.02.038-.047.072-.08.1-.033.028-.071.048-.113.061-.04.013-.084.017-.127.012-4.479-.392-8.99-.24-13.431.456h-.057z"/>
    <path fill="#231F20" d="M51.82 38.172c-4.442-.695-8.952-.848-13.43-.456-.044.005-.087 0-.128-.012-.041-.013-.08-.033-.113-.06-.033-.029-.06-.063-.08-.101-.019-.038-.03-.08-.033-.123-.006-.086.021-.171.076-.237.056-.066.135-.108.22-.117 4.433-.382 8.895-.244 13.295.41.881-3.294 1.993-6.522 3.326-9.66.016-.04.04-.075.07-.104.03-.03.066-.054.105-.07.04-.016.081-.024.124-.023.042 0 .084.01.123.026.08.035.142.1.174.181.032.081.031.172-.003.252-1.362 3.192-2.482 6.482-3.35 9.843-.019.082-.068.153-.138.2-.07.046-.155.064-.237.05z"/>
    <path fill="#fff" d="M34.983 42.968c.642 0 1.162-.52 1.162-1.162 0-.642-.52-1.162-1.162-1.162-.642 0-1.162.52-1.162 1.162 0 .641.52 1.162 1.162 1.162zM30.7 46.032c-.083 0-.163-.032-.222-.09-.06-.057-.095-.135-.097-.218v-.148c-.148-2.677-.376-7.131 4.819-8.715.04-.012.082-.016.124-.012.042.005.083.017.12.037.037.02.07.048.096.08.027.034.046.071.058.112.025.083.017.173-.024.25-.04.076-.11.134-.192.16-4.705 1.424-4.557 5.411-4.352 8.043v.148c.003.042-.002.084-.015.124-.014.04-.035.077-.062.108-.028.032-.061.058-.099.077-.037.019-.078.03-.12.033l-.034.011z"/>
</svg>
