<?xml version="1.0" standalone="no"?>
<!DOCTYPE svg PUBLIC "-//W3C//DTD SVG 20010904//EN"
 "http://www.w3.org/TR/2001/REC-SVG-20010904/DTD/svg10.dtd">
<svg version="1.0" xmlns="http://www.w3.org/2000/svg"
 width="200.000000pt" height="90.000000pt" viewBox="0 0 200.000000 90.000000"
 preserveAspectRatio="xMidYMid meet">

<g transform="translate(0.000000,90.000000) scale(0.100000,-0.100000)"
fill="#000000" stroke="none">
<path d="M1160 871 c-43 -13 -92 -41 -185 -106 -89 -61 -283 -166 -270 -146
10 17 -73 13 -134 -5 -30 -8 -89 -31 -133 -50 -90 -40 -118 -39 -118 7 0 16 9
46 20 66 25 47 25 60 1 99 -18 29 -103 75 -116 62 -2 -2 0 -21 6 -42 9 -33 43
-66 83 -79 5 -2 0 -23 -12 -48 -27 -56 -28 -80 -3 -110 17 -21 27 -24 79 -22
l60 1 -14 -26 c-8 -15 -23 -52 -34 -83 -12 -31 -32 -69 -46 -85 -15 -15 -29
-44 -31 -65 -4 -24 -16 -48 -34 -65 -16 -15 -29 -36 -29 -45 0 -10 -5 -30 -12
-45 -18 -39 8 -54 94 -54 74 0 80 6 48 47 -26 34 -25 66 3 98 17 20 39 30 95
40 141 27 214 89 238 204 10 47 12 51 13 21 1 -34 -32 -115 -62 -155 -15 -20
-13 -20 176 -31 l192 -11 39 33 c44 38 61 41 87 18 16 -14 18 -14 24 6 9 29
-9 47 -58 55 -25 5 -52 18 -69 35 -23 24 -28 37 -28 77 1 26 8 62 16 78 8 17
12 21 8 10 -33 -113 -5 -164 103 -189 36 -8 73 -22 81 -30 14 -13 13 -14 -6
-9 -17 4 -24 -2 -36 -31 -17 -41 -26 -44 -44 -16 -12 19 -14 19 -43 5 -16 -9
-35 -27 -42 -42 -10 -21 -8 -27 8 -39 64 -47 167 -33 244 32 42 37 43 38 39
90 -4 41 -11 60 -36 89 -29 32 -31 38 -17 51 8 9 16 23 16 32 1 9 5 -1 8 -23
5 -30 14 -45 40 -62 48 -32 61 -30 61 11 0 19 3 37 8 39 4 3 5 -14 4 -38 -2
-24 2 -61 8 -81 10 -28 10 -39 1 -42 -15 -5 -14 -55 1 -70 7 -7 31 -12 55 -12
40 0 43 2 43 26 0 18 17 42 59 82 65 63 83 97 54 105 -14 4 -12 5 5 6 13 0 49
-11 80 -25 65 -30 132 -43 132 -25 0 6 -6 11 -14 11 -7 0 -42 22 -76 50 -51
41 -70 50 -104 51 -22 0 -35 3 -28 6 25 10 9 33 -80 119 -225 211 -328 272
-418 245z"/>
<path d="M607 233 c-25 -24 31 -85 122 -135 24 -13 31 -24 31 -48 l0 -30 79 0
c75 0 79 1 74 20 -3 11 -41 53 -84 92 -45 40 -79 79 -79 89 0 17 -8 19 -68 19
-38 0 -72 -3 -75 -7z"/>
<path d="M1296 205 l-59 -33 39 -25 c22 -13 58 -34 82 -46 32 -16 44 -29 49
-51 5 -30 6 -30 79 -30 41 0 74 4 74 8 0 5 -43 48 -95 96 -52 48 -95 94 -95
102 0 19 -7 18 -74 -21z"/>
</g>
</svg>
