<svg xmlns="http://www.w3.org/2000/svg" width="70" height="70" fill="none" viewBox="0 0 70 70">
    <path fill="#000" d="M19.227 60.336l-.444-.103c3.42-14.957 1.767-23.245 1.755-23.325.24-7.98-2.622-18.24-2.644-18.366l.433-.125c.034.16 2.907 10.42 2.656 18.4.011.08 1.721 8.448-1.756 23.519zM50.807 60.336c-3.42-15.071-1.779-23.44-1.756-23.52-.25-7.98 2.622-18.24 2.645-18.4l.444.126c0 .103-2.884 10.397-2.633 18.31 0 .136-1.71 8.424 1.744 23.381l-.444.103zM35.143 13.218h-.456v8.801h.456v-8.8z"/>
    <path fill="#000" d="M50.601 23.855c-15.71-3.671-31.225 0-31.385 0l-.103-.445c.16 0 15.779-3.694 31.591 0l-.103.445zM27.367 14.666l-.136-.433c.09 0 8.083-2.452 15.595 0l-.136.433c-7.388-2.406-15.243-.023-15.322 0z"/>
    <path fill="#000" d="M37.605 21.985h-1.972v17.09h1.972v-17.09zM34.173 21.985h-1.972v17.09h1.972v-17.09zM58.65 58.033l-.091-.194-9.462-20.885.421-.183 9.371 20.692 5.61-2.007C63.7 52.948 56.016 28.7 52.903 20.572c-.266-.706-.652-1.362-1.14-1.938-1.46-1.561-9.018-3.944-9.12-3.967h-.114l-1.14-3.865c-.274-.205-2.257-1.345-6.624-1.345V9c5.016 0 6.977 1.334 7.057 1.39h.069v.08l1.037 3.717c1.014.32 7.706 2.497 9.12 4.059.517.623.925 1.328 1.209 2.086 3.271 8.539 11.582 34.85 11.674 35.124l.068.206-6.35 2.371z"/>
    <path fill="#000" d="M57.02 53.758l-.16-.422 6.373-2.417.16.433-6.373 2.406z"/>
    <path fill="#000" d="M58.65 58.033l-.091-.194-9.462-20.885.421-.183 9.371 20.692 5.61-2.007C63.7 52.948 56.016 28.7 52.903 20.572c-.266-.706-.652-1.362-1.14-1.938-1.46-1.561-9.018-3.944-9.12-3.967h-.114l-1.14-3.865c-.274-.205-2.257-1.345-6.624-1.345V9c5.016 0 6.977 1.334 7.057 1.39h.069v.08l1.037 3.717c1.014.32 7.706 2.497 9.12 4.059.517.623.925 1.328 1.209 2.086 3.271 8.539 11.582 34.85 11.674 35.124l.068.206-6.35 2.371z"/>
    <path fill="#000" d="M57.02 53.758l-.16-.422 6.373-2.417.16.433-6.373 2.406zM11.418 58.033L5 55.753l.068-.206c.08-.273 8.402-26.585 11.674-35.124.263-.753.649-1.458 1.14-2.086 1.46-1.562 8.163-3.74 9.12-4.059l1.061-3.796h.068c.08 0 2.03-1.391 7.057-1.391v.365c-4.366 0-6.361 1.049-6.737 1.265l-1.072 3.865h-.126c-.068 0-7.626 2.405-9.12 3.967-.487.577-.873 1.232-1.14 1.938C13.881 28.62 6.197 52.868 5.4 55.377l5.598 2.006 9.553-20.566.41.182-9.542 21.034z"/>
    <path fill="#000" d="M13.049 53.758l-6.373-2.406.16-.433 6.372 2.417-.16.422z"/>
    <path fill="#000" d="M11.418 58.033L5 55.753l.068-.206c.08-.273 8.402-26.585 11.674-35.124.263-.753.649-1.458 1.14-2.086 1.46-1.562 8.163-3.74 9.12-4.059l1.061-3.796h.068c.08 0 2.03-1.391 7.057-1.391v.365c-4.366 0-6.361 1.049-6.737 1.265l-1.072 3.865h-.126c-.068 0-7.626 2.405-9.12 3.967-.487.577-.873 1.232-1.14 1.938C13.881 28.62 6.197 52.868 5.4 55.377l5.598 2.006 9.553-20.566.41.182-9.542 21.034z"/>
    <path fill="#000" d="M13.049 53.758l-6.373-2.406.16-.433 6.372 2.417-.16.422z"/>
</svg>
