<svg xmlns="http://www.w3.org/2000/svg" width="70" height="70" fill="none" viewBox="0 0 70 70">
    <path fill="#000" d="M29.401 54.986l-1.96-.296.797-5.291.114-11.596 1.973.023-.125 11.79-.799 5.37zM40.428 54.986l-.822-5.507-.102-11.654 1.973-.022.114 11.596.798 5.29-1.962.297zM19.23 60.345l-.444-.102c3.42-14.96 1.767-23.25 1.756-23.33.24-7.981-2.623-18.244-2.646-18.37l.433-.124c0 .102 2.908 10.467 2.657 18.449.012.034 1.722 8.403-1.756 23.477zM50.85 60.345c-3.478-15.074-1.78-23.443-1.756-23.523-.251-7.982 2.622-18.244 2.645-18.404l.445.126c0 .102-2.885 10.399-2.646 18.312 0 .137-1.699 8.427 1.756 23.387l-.444.102zM35.137 13.219h-.456v8.803h.456v-8.803z"/>
    <path fill="#000" d="M50.61 23.857c-15.701-3.671-31.231 0-31.39 0l-.104-.444c.149 0 15.782-3.695 31.597 0l-.103.444zM27.372 14.667l-.137-.433c.08 0 8.073-2.452 15.599 0l-.137.433c-7.39-2.406-15.246-.023-15.325 0z"/>
    <path fill="#000" d="M58.706 58.042l-.091-.194-9.464-20.89.433-.136 9.373 20.696 5.61-2.007c-.798-2.509-8.495-26.762-11.608-34.892-.261-.709-.648-1.365-1.14-1.938-1.471-1.562-9.02-3.946-9.122-3.968h-.114l-1.14-3.866c-.32-.25-2.315-1.39-6.682-1.39V9c5.028 0 6.99 1.334 7.07 1.391h.068v.08l1.037 3.717c1.004.32 7.708 2.497 9.122 4.06.517.622.925 1.328 1.209 2.086 3.272 8.54 11.585 34.858 11.676 35.131l.057.205-6.294 2.372z"/>
    <path fill="#000" d="M57.03 53.766l-.172-.422 6.386-2.417.16.433-6.374 2.406z"/>
    <path fill="#000" d="M58.706 58.042l-.091-.194-9.464-20.89.433-.136 9.373 20.696 5.61-2.007c-.798-2.509-8.495-26.762-11.608-34.892-.261-.709-.648-1.365-1.14-1.938-1.471-1.562-9.02-3.946-9.122-3.968h-.114l-1.14-3.866c-.32-.25-2.315-1.39-6.682-1.39V9c5.028 0 6.99 1.334 7.07 1.391h.068v.08l1.037 3.717c1.004.32 7.708 2.497 9.122 4.06.517.622.925 1.328 1.209 2.086 3.272 8.54 11.585 34.858 11.676 35.131l.057.205-6.294 2.372z"/>
    <path fill="#000" d="M57.03 53.766l-.172-.422 6.386-2.417.16.433-6.374 2.406zM11.42 58.042L5 55.762l.068-.206c.08-.273 8.404-26.59 11.677-35.13.272-.762.678-1.468 1.197-2.088 1.46-1.562 8.164-3.74 9.179-4.059l1.06-3.797h.069c.08 0 2.03-1.391 7.058-1.391v.365c-4.367 0-6.363 1.049-6.739 1.266l-1.072 3.865h-.125c-.069 0-7.629 2.406-9.122 3.968-.488.576-.874 1.232-1.14 1.939-3.113 8.13-10.799 32.383-11.597 34.891l5.599 2.007 9.441-20.57.41.182-9.543 21.038z"/>
    <path fill="#000" d="M13.05 53.766L6.676 51.36l.16-.433 6.374 2.417-.16.422z"/>
    <path fill="#000" d="M11.42 58.042L5 55.762l.068-.206c.08-.273 8.404-26.59 11.677-35.13.272-.762.678-1.468 1.197-2.088 1.46-1.562 8.164-3.74 9.179-4.059l1.06-3.797h.069c.08 0 2.03-1.391 7.058-1.391v.365c-4.367 0-6.363 1.049-6.739 1.266l-1.072 3.865h-.125c-.069 0-7.629 2.406-9.122 3.968-.488.576-.874 1.232-1.14 1.939-3.113 8.13-10.799 32.383-11.597 34.891l5.599 2.007 9.441-20.57.41.182-9.543 21.038z"/>
    <path fill="#000" d="M13.05 53.766L6.676 51.36l.16-.433 6.374 2.417-.16.422z"/>
</svg>
