<svg xmlns="http://www.w3.org/2000/svg" width="70" height="70" fill="none" viewBox="0 0 70 70">
    <path fill="#000" d="M28.706 57.244l-1.936-.365 1.446-7.575.103-19.252 1.982.012-.125 19.525-1.47 7.655zM41.055 57.244l-1.481-7.837-.103-19.343 1.971-.012.114 19.252 1.447 7.575-1.948.365zM19.217 60.263l-.444-.103c3.417-14.946 1.765-23.227 1.743-23.307.25-7.974-2.61-18.227-2.643-18.352l.444-.125c.023.16 2.905 10.412 2.654 18.386 0 .08 1.72 8.441-1.754 23.5zM50.806 60.263c-3.475-15.06-1.777-23.421-1.755-23.501-.25-7.974 2.62-18.227 2.643-18.386l.445.125c0 .102-2.883 10.39-2.643 18.295 0 .137-1.698 8.418 1.754 23.364l-.444.103zM35.108 13.18h-.455v8.795h.455v-8.794z"/>
    <path fill="#000" d="M50.59 23.81c-15.699-3.669-31.214 0-31.362 0l-.103-.445c.149 0 15.767-3.69 31.567 0l-.103.444zM27.35 14.628l-.136-.433c.08 0 8.065-2.45 15.584 0l-.137.433c-7.382-2.404-15.23-.023-15.31 0z"/>
    <path fill="#000" d="M58.564 57.961l-.091-.193-9.456-20.87.433-.137 9.364 20.676 5.594-2.005c-.786-2.506-8.476-26.736-11.586-34.858-.265-.706-.65-1.362-1.139-1.937-1.47-1.56-9.01-3.941-9.113-3.964h-.114l-.98-3.953c-.376-.216-2.37-1.264-6.732-1.264V9c5.023 0 6.971 1.333 7.063 1.39h.057v.08l1.036 3.713c1.014.32 7.712 2.495 9.17 4.056.519.62.927 1.326 1.208 2.084 3.27 8.533 11.574 34.825 11.654 35.098l.068.205-6.436 2.335z"/>
    <path fill="#000" d="M63.147 50.755l-6.37 2.414.234.618 6.37-2.415-.234-.617z"/>
    <path fill="#000" d="M58.564 57.961l-.091-.193-9.456-20.87.433-.137 9.364 20.676 5.594-2.005c-.786-2.506-8.476-26.736-11.586-34.858-.265-.706-.65-1.362-1.139-1.937-1.47-1.56-9.01-3.941-9.113-3.964h-.114l-.98-3.953c-.376-.216-2.37-1.264-6.732-1.264V9c5.023 0 6.971 1.333 7.063 1.39h.057v.08l1.036 3.713c1.014.32 7.712 2.495 9.17 4.056.519.62.927 1.326 1.208 2.084 3.27 8.533 11.574 34.825 11.654 35.098l.068.205-6.436 2.335z"/>
    <path fill="#000" d="M56.98 53.69l-.17-.422 6.378-2.415.16.433-6.368 2.404zM11.402 57.961L5 55.683l.068-.205c.08-.273 8.396-26.565 11.665-35.098.271-.76.676-1.467 1.197-2.084 1.458-1.561 8.156-3.737 9.17-4.056l1.06-3.793h.068c.08 0 2.027-1.39 7.051-1.39v.365c-4.363 0-6.357 1.048-6.733 1.264l-1.082 3.862h-.114c-.08 0-7.62 2.403-9.113 3.964-.482.58-.866 1.234-1.14 1.937C13.989 28.57 6.31 52.8 5.514 55.307l5.593 2.005 9.432-20.55.41.182-9.546 21.017z"/>
    <path fill="#000" d="M6.85 50.747l-.234.618 6.37 2.413.235-.618-6.37-2.413z"/>
    <path fill="#000" d="M11.402 57.961L5 55.683l.068-.205c.08-.273 8.396-26.565 11.665-35.098.271-.76.676-1.467 1.197-2.084 1.458-1.561 8.156-3.737 9.17-4.056l1.06-3.793h.068c.08 0 2.027-1.39 7.051-1.39v.365c-4.363 0-6.357 1.048-6.733 1.264l-1.082 3.862h-.114c-.08 0-7.62 2.403-9.113 3.964-.482.58-.866 1.234-1.14 1.937C13.989 28.57 6.31 52.8 5.514 55.307l5.593 2.005 9.432-20.55.41.182-9.546 21.017z"/>
    <path fill="#000" d="M13.042 53.69l-6.379-2.404.17-.433 6.369 2.415-.16.422z"/>
</svg>
