<svg xmlns="http://www.w3.org/2000/svg" width="70" height="70" fill="none" viewBox="0 0 70 70">
    <path fill="#000" d="M19.22 60.307l-.445-.103c3.418-14.949 1.766-23.232 1.743-23.312.24-7.976-2.609-18.23-2.643-18.355l.444-.126c0 .103 2.906 10.46 2.655 18.436.011.034 1.71 8.397-1.755 23.46zM50.803 60.307C47.328 45.244 49.037 36.88 49.06 36.8c-.262-7.976 2.62-18.23 2.643-18.39l.445.126c0 .102-2.894 10.39-2.644 18.298 0 .137-1.697 8.42 1.744 23.37l-.445.102zM35.114 13.216h-.456v8.796h.456v-8.796z"/>
    <path fill="#000" d="M50.575 23.846c-15.7-3.657-31.219 0-31.367 0l-.102-.444c.148 0 15.769-3.692 31.572 0l-.103.444zM27.355 14.663l-.137-.433c.08 0 8.078-2.45 15.587 0l-.137.433c-7.383-2.405-15.233-.023-15.313 0z"/>
    <path fill="#000" d="M58.62 58.005l-.092-.194-9.457-20.873.41-.183 9.378 20.68 5.594-2.005c-.786-2.507-8.477-26.741-11.587-34.865-.266-.707-.651-1.362-1.14-1.937-1.47-1.561-9.012-3.943-9.115-3.965h-.114L41.415 10.8c-.32-.205-2.302-1.344-6.677-1.344V9c5.025 0 6.973 1.333 7.064 1.39h.057v.08l1.037 3.714c1.014.32 7.714 2.496 9.172 4.056.519.62.924 1.325 1.196 2.086 3.282 8.534 11.588 34.83 11.668 35.104l.068.205-6.38 2.37z"/>
    <path fill="#000" d="M56.979 53.732l-.16-.421 6.37-2.416.17.433-6.38 2.404z"/>
    <path fill="#000" d="M58.62 58.005l-.092-.194-9.457-20.873.41-.183 9.378 20.68 5.594-2.005c-.786-2.507-8.477-26.741-11.587-34.865-.266-.707-.651-1.362-1.14-1.937-1.47-1.561-9.012-3.943-9.115-3.965h-.114L41.415 10.8c-.32-.205-2.302-1.344-6.677-1.344V9c5.025 0 6.973 1.333 7.064 1.39h.057v.08l1.037 3.714c1.014.32 7.714 2.496 9.172 4.056.519.62.924 1.325 1.196 2.086 3.282 8.534 11.588 34.83 11.668 35.104l.068.205-6.38 2.37z"/>
    <path fill="#000" d="M56.979 53.732l-.16-.421 6.37-2.416.17.433-6.38 2.404zM11.403 58.005L5 55.726l.068-.205c.08-.273 8.386-26.57 11.656-35.105.284-.757.692-1.462 1.208-2.085 1.459-1.56 8.158-3.737 9.115-4.056l1.06-3.794h.057c.09 0 2.04-1.39 7.064-1.39v.365c-4.364 0-6.358 1.048-6.734 1.264l-1.14 3.863h-.113c-.08 0-7.623 2.404-9.115 3.965-.489.575-.874 1.23-1.14 1.937C13.876 28.609 6.185 52.843 5.4 55.35l5.594 2.005 9.537-20.554.421.182-9.548 21.022z"/>
    <path fill="#000" d="M13.044 53.732l-6.38-2.404.17-.433 6.37 2.416-.16.421z"/>
    <path fill="#000" d="M11.403 58.005L5 55.726l.068-.205c.08-.273 8.386-26.57 11.656-35.105.284-.757.692-1.462 1.208-2.085 1.459-1.56 8.158-3.737 9.115-4.056l1.06-3.794h.057c.09 0 2.04-1.39 7.064-1.39v.365c-4.364 0-6.358 1.048-6.734 1.264l-1.14 3.863h-.113c-.08 0-7.623 2.404-9.115 3.965-.489.575-.874 1.23-1.14 1.937C13.876 28.609 6.185 52.843 5.4 55.35l5.594 2.005 9.537-20.554.421.182-9.548 21.022z"/>
    <path fill="#000" d="M13.044 53.732l-6.38-2.404.17-.433 6.37 2.416-.16.421z"/>
</svg>
