<svg xmlns="http://www.w3.org/2000/svg" width="70" height="70" fill="none" viewBox="0 0 70 70">
    <path fill="#000" d="M43.952 22.415h-1.976v17.31h1.976v-17.31zM27.967 22.415H25.99v17.31h1.977v-17.31zM19.248 60.373l-.445-.103c3.428-14.991 1.782-23.298 1.76-23.378.24-7.999-2.617-18.282-2.651-18.408l.445-.126c0 .103 2.903 10.49 2.663 18.488.011.035 1.713 8.422-1.771 23.527zM50.934 60.373c-3.485-15.105-1.771-23.492-1.748-23.572-.263-7.999 2.616-18.283 2.65-18.443l.435.126c0 .103-2.891 10.421-2.64 18.35 0 .138-1.702 8.445 1.749 23.436l-.446.103zM35.2 13.148h-.457v8.821h.457v-8.821z"/>
    <path fill="#000" d="M50.694 23.809c-15.734-3.68-31.297 0-31.446 0l-.114-.446c.16 0 15.826-3.702 31.674 0l-.114.446zM27.419 14.599l-.137-.434c.08 0 8.09-2.457 15.63 0l-.136.434c-7.405-2.411-15.277-.023-15.357 0z"/>
    <path fill="#000" d="M58.761 58.065l-.08-.194-9.484-20.934.412-.182 9.404 20.739 5.61-2.011c-.8-2.514-8.501-26.818-11.62-34.965-.272-.706-.658-1.363-1.143-1.943-1.474-1.565-9.038-3.953-9.141-3.976h-.115l-1.142-3.874c-.377-.217-2.377-1.268-6.753-1.268V9c5.039 0 6.993 1.337 7.073 1.394h.068v.08l1.04 3.725c1.017.32 7.736 2.502 9.198 4.068.5.625.887 1.332 1.143 2.09 3.28 8.56 11.62 34.931 11.7 35.206l.07.205-6.24 2.297z"/>
    <path fill="#000" d="M57.127 53.78l-.16-.423 6.388-2.422.171.434-6.399 2.411z"/>
    <path fill="#000" d="M58.761 58.065l-.08-.194-9.484-20.934.412-.182 9.404 20.739 5.61-2.011c-.8-2.514-8.501-26.818-11.62-34.965-.272-.706-.658-1.363-1.143-1.943-1.474-1.565-9.038-3.953-9.141-3.976h-.115l-1.142-3.874c-.377-.217-2.377-1.268-6.753-1.268V9c5.039 0 6.993 1.337 7.073 1.394h.068v.08l1.04 3.725c1.017.32 7.736 2.502 9.198 4.068.5.625.887 1.332 1.143 2.09 3.28 8.56 11.62 34.931 11.7 35.206l.07.205-6.24 2.297z"/>
    <path fill="#000" d="M57.127 53.78l-.16-.423 6.388-2.422.171.434-6.399 2.411zM11.422 58.065L5 55.78l.057-.206c.092-.274 8.421-26.646 11.7-35.205.285-.76.694-1.466 1.212-2.09 1.462-1.566 8.181-3.749 9.198-4.069l1.051-3.805h.069c.08 0 2.045-1.394 7.084-1.394v.366c-4.376 0-6.376 1.051-6.753 1.268l-1.085 3.874h-.114c-.08 0-7.645 2.41-9.142 3.976-.49.577-.876 1.234-1.142 1.943-3.12 8.147-10.832 32.45-11.632 34.965l5.621 2.01 9.45-20.613.423.183-9.575 21.082z"/>
    <path fill="#000" d="M13.056 53.78l-6.388-2.41.16-.435 6.399 2.422-.171.423z"/>
    <path fill="#000" d="M11.422 58.065L5 55.78l.057-.206c.092-.274 8.421-26.646 11.7-35.205.285-.76.694-1.466 1.212-2.09 1.462-1.566 8.181-3.749 9.198-4.069l1.051-3.805h.069c.08 0 2.045-1.394 7.084-1.394v.366c-4.376 0-6.376 1.051-6.753 1.268l-1.085 3.874h-.114c-.08 0-7.645 2.41-9.142 3.976-.49.577-.876 1.234-1.142 1.943-3.12 8.147-10.832 32.45-11.632 34.965l5.621 2.01 9.45-20.613.423.183-9.575 21.082z"/>
    <path fill="#000" d="M13.056 53.78l-6.388-2.41.16-.435 6.399 2.422-.171.423z"/>
</svg>
