<?xml version="1.0" encoding="iso-8859-1"?>
<!-- Generator: Adobe Illustrator 26.4.0, SVG Export Plug-In . SVG Version: 6.00 Build 0)  -->
<svg version="1.1" id="Layer_1" xmlns="http://www.w3.org/2000/svg" xmlns:xlink="http://www.w3.org/1999/xlink" x="0px" y="0px"
	 width="70px" height="70px" viewBox="0 0 70 70" style="enable-background:new 0 0 70 70;" xml:space="preserve">
<path d="M38.8,60.3c-10.7-0.3-21.4-1.4-32-3.5c-0.1,0-0.2-0.1-0.2-0.4v-7.9l-1.5,7.6c0,0.1-0.1,0.3-0.2,0.3s-0.2,0-0.2,0L1.4,55
	c-0.1,0-0.2-0.3-0.2-0.4C4.5,34.6,4,0.4,4-0.1h0.7c0,0.5,0.7,34.2-2.7,54.6l2.1,0.9L6.6,45c0-0.1,0.5-2.4,0.6-2.4
	c0.2,0,0.2,2.2,0.2,2.4l0.3,11.1c2.7,0.5,25.3,5.1,41.2,2.9c14.3-1.9,18.3-2.9,19.3-3.2c-0.3-4.6-3.9-40.2-1.9-56L66.9,0
	c-2,16.3,1.9,55.5,1.9,56.1c0,0.1-0.1,0.4-0.2,0.4s-2.8,1-19.6,3.3C45.4,60.1,42,60.3,38.8,60.3z"/>
<rect x="45.4" y="-0.1" width="0.7" height="59.4"/>
<rect x="51.3" y="-0.1" width="0.7" height="59.4"/>
<path d="M7.4,45H6.6C8.3,31.8,8.8,0.4,8.9-0.1h0.7732C9.5732,0.4,9,31.8,7.4,45z"/>
<path d="M49.5,19.2c0,0.5-0.2,1-0.7,1s-0.9-0.3-0.9-0.8c0-0.1,0-0.1,0-0.3c0-0.5,0.4-0.9,0.9-0.8C49.2,18.4,49.4,18.6,49.5,19.2"/>
<path d="M49.5,40.4c0,0.5-0.2,1-0.7,1s-0.9-0.3-0.9-0.8c0-0.1,0-0.1,0-0.3c0-0.5,0.4-0.9,0.9-0.8C49.2,39.6,49.4,40,49.5,40.4"/>
<path d="M7.3858,51.3217c-0.6-0.1-1.4779,0.4833-1.9779,0.5833l-0.2-0.8c0.7-0.3,1.5218-0.525,2.2218-0.225L7.3858,51.3217z"/>
<polygon points="6.8352,46.5334 6.1628,49.1018 5.593,50.7745 5.799,50.9765 7.0447,50.9765 7.0447,49.0027 "/>
</svg>
