<?xml version="1.0" encoding="iso-8859-1"?>
<!-- Generator: Adobe Illustrator 26.4.0, SVG Export Plug-In . SVG Version: 6.00 Build 0)  -->
<svg version="1.1" id="Layer_1" xmlns="http://www.w3.org/2000/svg" xmlns:xlink="http://www.w3.org/1999/xlink" x="0px" y="0px"
	 width="70px" height="70px" viewBox="0 0 70 70" style="enable-background:new 0 0 70 70;" xml:space="preserve">
<path d="M48.9,19.2c0,0.5-0.2,1-0.7,1c-0.4,0-0.9-0.3-0.9-0.8c0-0.1,0-0.1,0-0.3c0-0.5,0.4-0.9,0.9-0.8
	C48.6,18.4,48.8,18.6,48.9,19.2"/>
<path d="M48.9,40.4c0,0.5-0.2,1-0.7,1c-0.4,0-0.9-0.3-0.9-0.8c0-0.1,0-0.1,0-0.3c0-0.5,0.4-0.9,0.9-0.8C48.6,39.6,48.8,40,48.9,40.4
	"/>
<path d="M47.3,61.7c-8.8,0-22.4-2.3-31.5-6.8C7,50.5,1.7,52.6,1.6,52.6s-0.2,0-0.3-0.1s-0.1-0.2-0.1-0.4C6.5,33.2,4.5,0.5,4.4,0h0.7
	c0,0.5,2,32.3-3.1,51.8c1.6-0.5,6.6-1.3,14.1,2.3c9.1,4.4,22.6,6.7,31.3,6.7c7.1,0,16.6-2.2,20.9-6.6C68,50.9,64,15.1,66.6,0h0.6
	c-2.7,15.5,1.6,53.8,1.7,54.3c0,0.1,0,0.2-0.1,0.2C64.5,59.4,54.7,61.7,47.3,61.7z"/>
<polygon points="45,0 45.6,0 45.6,61.4 44.9,61.4 "/>
<polygon points="50.8,0 51.5,0 51.4,61.4 50.7,61.4 "/>
<path d="M7.9991,51.8l-0.7092-0.1c2-8.2,1.9256-51.1,1.9256-51.7h0.7781C9.8935,0.5,9.8991,43.5,7.9991,51.8z"/>
<path d="M19,59.1c-14.3,0-17.5-6.2-17.7-6.5l-0.1-0.5l0.7,0.1c0,0.1,4.4,8.1,24.1,5.7l0.4,0.7C23.8,58.9,21.1,59.1,19,59.1z"/>
<polygon points="1.9,52.2 1.9,52.8958 4.1147,55.0091 9.3188,57.4659 13.8,58.4169 19.4892,58.6547 23.5574,58.4697 
	25.1577,57.9973 21.3384,56.8055 16.4777,54.7714 13.1228,53.3185 9.6,52.2 6.5978,51.8 4.0354,51.6542 "/>
</svg>
