<?xml version="1.0" encoding="iso-8859-1"?>
<!-- Generator: Adobe Illustrator 26.4.0, SVG Export Plug-In . SVG Version: 6.00 Build 0)  -->
<svg version="1.1" id="Layer_1" xmlns="http://www.w3.org/2000/svg" xmlns:xlink="http://www.w3.org/1999/xlink" x="0px" y="0px"
	 width="70px" height="70px" viewBox="0 0 70 70" style="enable-background:new 0 0 70 70;" xml:space="preserve">
<path d="M47.4,60.9c-8.8,0-22.6-2.1-31.8-6.2c-8.8-3.9-14.1-2-14.2-2s-0.2,0-0.3-0.1c0,0-0.1-0.1,0-0.2C6.3,35.3,4.2,0.5,4.2,0h0.7
	c0,0.5,2.1,34.5-3.1,52.1c1.6-0.5,6.5-1.1,14.1,2.2c9.2,4,22.8,6.1,31.5,6.1c7.2,0,16.7-2.1,21-6c-0.2-3-4.4-40.7-1.6-54.3h0.7
	c-2.8,14,1.5,54,1.5,54.5c0,0.1,0,0.2-0.1,0.2C64.6,58.8,54.8,60.9,47.4,60.9z"/>
<rect x="44.9" width="0.7" height="60.5"/>
<rect x="50.8" width="0.7" height="60.5"/>
<path d="M7.8646,52.1646L7.222,52.0291C9.222,44.6291,9.1,0.6,9.1,0h0.673C9.773,0.6,9.8646,44.6646,7.8646,52.1646z"/>
<path d="M43,66.5c-8,0-17.9-1.9-26.9-5.2c-9.1-3.4-15-8.6-15-8.7l0.7-0.1c0,0.1,5.5,5,14.5,8.4c9.9,3.6,20.6,5.6,29,5.1
	c10.5-0.5,16.9-6.1,21-9.8c0.8-0.8,1.6-1.3,2.2-1.9l0.5,0.4c-0.7,0.5-1.4,1.1-2.2,1.9c-4.2,3.7-10.7,9.4-21.4,10
	C44.5,66.5,43.8,66.5,43,66.5z"/>
<path d="M49,18.9c0,0.5-0.2,1-0.7,1s-0.9-0.3-0.9-0.8c0-0.1,0-0.1,0-0.3c0-0.5,0.4-0.9,0.9-0.8C48.6,18.1,48.9,18.4,49,18.9"/>
<path d="M49,40.1c0,0.5-0.2,1-0.7,1s-0.9-0.3-0.9-0.8c0-0.1,0-0.1,0-0.3c0-0.5,0.4-0.9,0.9-0.8C48.6,39.3,48.9,39.7,49,40.1"/>
<polygon points="1.5,52.5 4.6,51.9 10,52.5 13.3,53.5 17.5,55.2 23,57.1 27.4,58.1 34.8,59.6 41.9,60.5 48.4,60.9 53.4,60.2 
	60.5,58.7 65.7,56.7 62.3,59.9 58.4,62.5 54,64.5 49.2,65.8 45.6,66.2 41.6,66.2 35.7,65.8 31.9,65.3 26.4,64.2 21.2,62.8 
	18.5,61.9 14.4,60.5 10.7,58.7 4.6,55.4 "/>
</svg>
