<?xml version="1.0" encoding="iso-8859-1"?>
<!-- Generator: Adobe Illustrator 26.4.0, SVG Export Plug-In . SVG Version: 6.00 Build 0)  -->
<svg version="1.1" id="Layer_1" xmlns="http://www.w3.org/2000/svg" xmlns:xlink="http://www.w3.org/1999/xlink" x="0px" y="0px"
	 width="70px" height="70px" viewBox="0 0 70 70" style="enable-background:new 0 0 70 70;" xml:space="preserve">
<style type="text/css">
	.st0{fill:none;stroke:#000000;stroke-width:0.6;stroke-miterlimit:10;}
	.st1{fill:none;stroke:#000000;stroke-width:0.6;stroke-miterlimit:10;stroke-dasharray:0.9853,0.9853;}
</style>
<g id="surface1_00000142887310067915092470000001449995825130997677_">
	<path class="st0" d="M42.6016,6.8136c0,0-1.7031,3.5-2.9023,5.1016c-1.3008,1.5977-1.3984,2-2,0.3984
		c-0.5977-1.5977-1.8008-3.8984-2-4.0977"/>
	<path class="st0" d="M41.8984,4.0128c0,0-2.8984,4.1016-6.8984,4.1016"/>
	<path class="st0" d="M35,4.9151c0,0,2-0.1016,5.3008,0.8984"/>
	<path class="st0" d="M36.8984,10.5128c0,0-1,0.3008-1.8984,0.3008"/>
	<path class="st0" d="M63.3984,43.9151L57,46.1143"/>
	<path d="M35.3008,9.7159c0,0.1641-0.1367,0.2969-0.3008,0.2969S34.6992,9.88,34.6992,9.7159c0-0.168,0.1367-0.3008,0.3008-0.3008
		S35.3008,9.5479,35.3008,9.7159z"/>
	<path d="M35.3008,14.1143c0,0.1641-0.1367,0.3008-0.3008,0.3008s-0.3008-0.1367-0.3008-0.3008S34.8359,13.8136,35,13.8136
		S35.3008,13.9503,35.3008,14.1143z"/>
	<path d="M35.3008,22.9151c0,0.1641-0.1367,0.3008-0.3008,0.3008s-0.3008-0.1367-0.3008-0.3008c0-0.168,0.1367-0.3008,0.3008-0.3008
		S35.3008,22.7472,35.3008,22.9151z"/>
	<path d="M35.3008,31.7159c0,0.1641-0.1367,0.2969-0.3008,0.2969s-0.3008-0.1328-0.3008-0.2969c0-0.168,0.1367-0.3008,0.3008-0.3008
		S35.3008,31.5479,35.3008,31.7159z"/>
	<path d="M35.3008,40.4151c0,0.1641-0.1367,0.3008-0.3008,0.3008s-0.3008-0.1367-0.3008-0.3008c0-0.168,0.1367-0.3008,0.3008-0.3008
		S35.3008,40.2472,35.3008,40.4151z"/>
	<path d="M35.3008,49.2159c0,0.1641-0.1367,0.2969-0.3008,0.2969s-0.3008-0.1328-0.3008-0.2969c0-0.168,0.1367-0.3008,0.3008-0.3008
		S35.3008,49.0479,35.3008,49.2159z"/>
	<path class="st0" d="M36.1016,10.8136v53.2053"/>
	<path class="st0" d="M35,1.6143c0,0-3.5-0.1016-6.5,1.5c-0.1992,0.1016-0.3008,0.3008-0.3008,0.3984l-0.8008,3.3008
		c0,0-6.7969,2.5-8.2969,3.5c-1.5,0.9023-2.1016,2-3.9023,7.8008s-10,30.1992-10,30.1992l5.9023,1.9023l9.6992-20.8008
		c0,0,1.3984,17.8032-1.8008,29.2016c6.0374,5.6792,15.9811,5.3892,15.9811,5.3892s9.9838,0.3618,15.9173-5.4079
		c-3.1992-11.3984-1.7969-29.183-1.7969-29.183l9.6992,20.8008l5.8984-1.9023c0,0-8.0977-24.3984-9.8984-30.1992
		s-2.4023-6.8984-3.9023-7.8008c-1.5-1-8.2969-3.5-8.2969-3.5l-0.8008-3.3008c0-0.0977-0.1016-0.2969-0.3008-0.3984
		C38.5,1.5128,35,1.6143,35,1.6143"/>
	<path class="st0" d="M27.3984,6.8136c0,0,1.7031,3.5,2.9023,5.1016c1.1992,1.5977,1.3984,2,2,0.3984
		c0.5977-1.5977,1.8008-3.8984,2-4.0977"/>
	<path class="st0" d="M28.1016,4.0128c0,0,2.8984,4.1016,6.8984,4.1016"/>
	<path class="st0" d="M35,4.9151c0,0-2-0.1016-5.3008,0.8984"/>
	<path class="st0" d="M33.1016,10.5128c0,0,1,0.3008,1.8984,0.3008"/>
	<path class="st0" d="M6.6016,43.9151L13,46.1143"/>
	<path d="M35.3008,9.7159c0,0.1641-0.1367,0.2969-0.3008,0.2969S34.6992,9.88,34.6992,9.7159c0-0.168,0.1367-0.3008,0.3008-0.3008
		S35.3008,9.5479,35.3008,9.7159z"/>
	<path d="M35.3008,14.1143c0,0.1641-0.1367,0.3008-0.3008,0.3008s-0.3008-0.1367-0.3008-0.3008S34.8359,13.8136,35,13.8136
		S35.3008,13.9503,35.3008,14.1143z"/>
	<path d="M35.3008,22.9151c0,0.1641-0.1367,0.3008-0.3008,0.3008s-0.3008-0.1367-0.3008-0.3008c0-0.168,0.1367-0.3008,0.3008-0.3008
		S35.3008,22.7472,35.3008,22.9151z"/>
	<path d="M35.3008,31.7159c0,0.1641-0.1367,0.2969-0.3008,0.2969s-0.3008-0.1328-0.3008-0.2969c0-0.168,0.1367-0.3008,0.3008-0.3008
		S35.3008,31.5479,35.3008,31.7159z"/>
	<path d="M35.3008,40.4151c0,0.1641-0.1367,0.3008-0.3008,0.3008s-0.3008-0.1367-0.3008-0.3008c0-0.168,0.1367-0.3008,0.3008-0.3008
		S35.3008,40.2472,35.3008,40.4151z"/>
	<path d="M35.3008,49.2159c0,0.1641-0.1367,0.2969-0.3008,0.2969s-0.3008-0.1328-0.3008-0.2969c0-0.168,0.1367-0.3008,0.3008-0.3008
		S35.3008,49.0479,35.3008,49.2159z"/>
	<path d="M35.3008,58.3199c0,0.1641-0.1367,0.2969-0.3008,0.2969s-0.3008-0.1328-0.3008-0.2969c0-0.168,0.1367-0.3008,0.3008-0.3008
		S35.3008,58.1519,35.3008,58.3199z"/>
	<path class="st0" d="M33.8984,10.8136v53.2088"/>
</g>
<g>
	<g>
		<line class="st0" x1="8.207" y1="64.6027" x2="8.707" y2="64.6027"/>
		<line class="st1" x1="9.6923" y1="64.6027" x2="62.4058" y2="64.6027"/>
		<line class="st0" x1="62.8984" y1="64.6027" x2="63.3984" y2="64.6027"/>
	</g>
</g>
</svg>
