<svg xmlns="http://www.w3.org/2000/svg" xmlns:xlink="http://www.w3.org/1999/xlink" id="Layer_1" x="0px" y="0px" viewBox="0 0 68.5 68.5" style="enable-background:new 0 0 68.5 68.5;" xml:space="preserve"><style type="text/css">	.st0{fill:none;stroke:#545454;stroke-linejoin:round;}</style><g transform="translate(-1 -.5)">	<path class="st0" d="M35.3,34.7C44.6,44,59.6,44.1,69,35L35,1C25.9,10.4,26,25.4,35.3,34.7z"></path>	<path class="st0" d="M38.7,31.3c7.4,7.4,19.3,7.5,26.8,0.2l-27-27C31.2,12,31.3,23.9,38.7,31.3z"></path>	<path class="st0" d="M42.8,27.2c5.1,5.1,13.3,5.1,18.5,0.1L42.7,8.7C37.7,13.9,37.7,22.1,42.8,27.2z"></path>	<path class="st0" d="M47,23c2.8,2.8,7.3,2.9,10.2,0.1c0,0,0,0,0,0L46.9,12.8C44.1,15.6,44.1,20.2,47,23C47,23,47,23,47,23z"></path>	<path class="st0" d="M50.6,19.4c0.8,0.7,2,0.7,2.8,0l-2.8-2.8C49.9,17.4,49.9,18.6,50.6,19.4z"></path>	<path class="st0" d="M35.3,34.7c-9.3-9.3-24.4-9.4-33.8-0.2l34,34C44.7,59.1,44.6,44,35.3,34.7z"></path>	<path class="st0" d="M31.9,38.1C24.5,30.7,12.5,30.7,5,38l27,27C39.3,57.5,39.3,45.5,31.9,38.1z"></path>	<path class="st0" d="M27.7,42.3c-5.1-5.1-13.4-5.2-18.5-0.1l18.6,18.6C32.9,55.7,32.8,47.4,27.7,42.3z"></path>	<path class="st0" d="M23.6,46.4c-2.8-2.8-7.4-2.8-10.2,0c0,0,0,0,0,0l10.2,10.2C26.4,53.8,26.4,49.2,23.6,46.4  C23.6,46.4,23.6,46.4,23.6,46.4z"></path>	<path class="st0" d="M19.9,50.1c-0.7-0.8-1.9-0.8-2.7-0.1c0,0-0.1,0.1-0.1,0.1l2.8,2.8c0.8-0.7,0.8-1.9,0.1-2.7  C20,50.2,19.9,50.1,19.9,50.1z"></path>	<path class="st0" d="M35.3,34.7c9.3-9.3,9.4-24.3,0.2-33.7l-34,34C11,44.1,26,44,35.3,34.7z"></path>	<path class="st0" d="M31.9,31.3c7.4-7.4,7.4-19.4,0.1-26.8l-27,27C12.5,38.8,24.5,38.7,31.9,31.3z"></path>	<path class="st0" d="M27.7,27.2c5.1-5.1,5.2-13.4,0.1-18.5L9.2,27.3C14.4,32.3,22.6,32.3,27.7,27.2z"></path>	<path class="st0" d="M23.6,23c2.8-2.8,2.8-7.4,0-10.2c0,0,0,0,0,0L13.4,23.1C16.2,25.9,20.8,25.9,23.6,23C23.6,23,23.6,23,23.6,23z  "></path>	<path class="st0" d="M19.9,19.4c0.8-0.7,0.8-1.9,0.1-2.7c0,0-0.1-0.1-0.1-0.1l-2.8,2.8C17.9,20.1,19.1,20.1,19.9,19.4z"></path>	<path class="st0" d="M35.3,34.7C26,44,25.9,59,35,68.5l34-34C59.6,25.3,44.6,25.4,35.3,34.7z"></path>	<path class="st0" d="M38.7,38.1c-7.4,7.4-7.5,19.4-0.2,26.9l27-27C58.1,30.7,46.1,30.7,38.7,38.1z"></path>	<path class="st0" d="M42.8,42.3c-5.1,5.1-5.1,13.3-0.1,18.5l18.6-18.6C56.2,37.1,47.9,37.2,42.8,42.3z"></path>	<path class="st0" d="M47,46.4c-2.8,2.8-2.9,7.3-0.1,10.2c0,0,0,0,0,0l10.3-10.2C54.4,43.6,49.8,43.6,47,46.4  C47,46.4,47,46.4,47,46.4z"></path>	<path class="st0" d="M50.6,50.1c-0.7,0.8-0.7,2,0,2.8l2.8-2.8c-0.7-0.8-1.9-0.8-2.7-0.1C50.7,50,50.6,50.1,50.6,50.1z"></path></g></svg>