<svg xmlns="http://www.w3.org/2000/svg" width="70" height="70" fill="none" viewBox="0 0 70 70">
    <path fill="#231F20" d="M35.053 41.294c.592 0 1.073-.48 1.073-1.073s-.48-1.073-1.073-1.073-1.074.48-1.074 1.073.48 1.073 1.074 1.073z"/>
    <path fill="#231F20" d="M57.57 20.671c-.006-.042-.006-.084 0-.126-.054-.28-.169-.545-.336-.776-.167-.23-.383-.422-.633-.56h-.052C51.709 16.547 43.67 15 35 15s-16.582 1.536-21.412 4.114l-.179.095c-.249.137-.464.329-.63.56-.165.231-.277.496-.327.776v.126c-1.039 3.545-1.858 7.15-2.452 10.796 0 3.977 13.016 19.581 15.625 22.664.863 1.052 1.547 1.515 2.104 1.515.098.016.197.016.295 0 .873-.284.989-1.715 1.052-2.767v-.474c.126-.968.232-1.894.337-2.778.252-2.104.484-4.03.873-5.85 1.537.217 3.088.326 4.64.326 1.556 0 3.11-.11 4.651-.326.379 1.82.61 3.746.863 5.861.105.884.21 1.8.337 2.767v.474c.084 1.052.21 2.483 1.052 2.767.097.015.197.015.294 0 .569 0 1.252-.484 2.105-1.515 2.61-3.083 15.625-18.687 15.625-22.706-.542-3.628-1.305-7.219-2.284-10.754zm-43.856-.957l.158-.084C18.575 17.104 26.467 15.6 35 15.6s16.477 1.504 21.212 4.082h.074c.173.098.324.232.44.394.116.162.196.347.233.543.168.863-.316 2.104-1.368 3.535-.968 1.277-2.045 2.467-3.22 3.556C46.738 26.03 40.88 25.225 35 25.322c-5.877-.084-11.733.736-17.361 2.43-1.187-1.083-2.271-2.274-3.24-3.556-1.053-1.42-1.537-2.672-1.369-3.535.039-.198.12-.386.238-.55.118-.163.27-.299.446-.397zm21.76 16.161c-.312.032-.626.032-.937 0-6.078-.933-11.76-3.591-16.372-7.66 5.467-1.593 11.14-2.366 16.835-2.293 5.694-.07 11.367.703 16.835 2.293-4.56 4.14-10.262 6.809-16.361 7.66zm-6.535 13.637c-.105.894-.21 1.81-.336 2.767 0 .137 0 .305-.053.505-.053.674-.168 2.105-.663 2.252-.158.052-.652 0-1.757-1.284-7.186-8.46-15.53-19.36-15.53-22.243.497-3.14 1.171-6.249 2.02-9.312.311.848.752 1.643 1.305 2.357 4.743 5.99 11.451 10.112 18.94 11.637-2.873 4.061-3.357 8.186-3.926 13.32zm1.59-6.313c.52-2.461 1.532-4.791 2.977-6.85.326.053.663.126 1 .168.175.013.35.013.526 0 .189.013.379.013.568 0 .336 0 .663-.094.989-.147 1.448 2.049 2.462 4.373 2.977 6.829-3.015.385-6.068.37-9.08-.042l.042.042zm13.394 10.553c-1.116 1.315-1.61 1.326-1.768 1.284-.495-.158-.61-1.568-.663-2.252 0-.19 0-.368-.053-.505-.115-.957-.231-1.873-.336-2.757-.6-5.134-1.053-9.206-3.914-13.31 7.509-1.483 14.232-5.622 18.939-11.658.518-.72.93-1.51 1.22-2.346.876 3.044 1.579 6.135 2.105 9.259 0 2.925-8.418 13.825-15.53 22.285z"/>
</svg>
