<svg xmlns="http://www.w3.org/2000/svg" width="70" height="70" fill="none" viewBox="0 0 70 70">
    <g fill="#231F20" clip-path="url(#clip0)">
        <path d="M35 41.347c.593 0 1.073-.48 1.073-1.073S35.593 39.2 35 39.2s-1.073.48-1.073 1.074c0 .592.48 1.073 1.073 1.073zM35 45.04c.593 0 1.073-.48 1.073-1.073s-.48-1.073-1.073-1.073-1.073.48-1.073 1.073.48 1.073 1.073 1.073z"/>
        <path d="M57.57 20.671c-.006-.042-.006-.084 0-.126-.055-.281-.17-.547-.34-.778-.169-.231-.387-.422-.64-.558h-.073C51.71 16.547 43.67 15 35 15s-16.582 1.536-21.412 4.114l-.179.095c-.25.136-.465.327-.631.559-.166.23-.277.497-.326.777v.126c-1.039 3.545-1.858 7.15-2.452 10.796 0 3.977 13.016 19.581 15.625 22.664.863 1.052 1.547 1.515 2.104 1.515.098.016.197.016.295 0 .873-.284.989-1.715 1.052-2.767v-.474c.126-.968.232-1.894.337-2.778.105-.883.19-1.557.284-2.304 1.745.215 3.502.32 5.26.316 1.76 0 3.517-.108 5.262-.326.095.757.19 1.515.284 2.314.095.8.21 1.81.337 2.778v.474c.084 1.052.21 2.483 1.052 2.767.097.015.197.015.294 0 .569 0 1.253-.484 2.105-1.515 2.61-3.083 15.625-18.687 15.625-22.706-.563-3.63-1.346-7.22-2.347-10.754zm-44.54 0c.039-.198.12-.385.238-.549.118-.163.27-.299.446-.398l.158-.084C18.575 17.104 26.467 15.6 35 15.6s16.509 1.504 21.296 4.103c.174.098.324.232.44.394.117.162.196.347.234.543.168.852-.316 2.104-1.368 3.535-.968 1.277-2.045 2.467-3.22 3.556-5.636-1.688-11.499-2.5-17.382-2.409-5.877-.085-11.733.735-17.361 2.43-1.187-1.083-2.271-2.274-3.24-3.556-1.053-1.42-1.537-2.672-1.369-3.535v.01zm22.444 15.204c-.315.032-.633.032-.947 0-6.076-.932-11.755-3.591-16.362-7.66 5.467-1.593 11.14-2.366 16.835-2.293 5.694-.07 11.367.703 16.835 2.293-4.562 4.138-10.263 6.807-16.361 7.66zm-6.535 13.637c-.105.894-.21 1.81-.336 2.767 0 .137 0 .316-.053.505-.053.684-.168 2.105-.663 2.252-.158.052-.652 0-1.757-1.284-7.186-8.46-15.53-19.36-15.53-22.243.495-3.137 1.17-6.242 2.02-9.302.314.844.754 1.635 1.305 2.347 4.743 5.99 11.451 10.112 18.94 11.637-2.873 4.061-3.357 8.186-3.926 13.32zm.958-2.83c.526-3.83 1.284-7.113 3.609-10.375.326.052.652.126.989.168.179.012.358.012.537 0 .189.013.379.013.568 0 .336 0 .663-.095.989-.147 2.325 3.262 3.083 6.534 3.609 10.364-3.436.411-6.908.408-10.343-.01h.042zm14.057 7.07c-1.052 1.315-1.6 1.336-1.757 1.284-.495-.158-.61-1.568-.663-2.252 0-.19 0-.368-.053-.505-.126-.957-.231-1.873-.336-2.767-.6-5.124-1.052-9.196-3.914-13.3 7.511-1.478 14.236-5.618 18.939-11.658.509-.722.906-1.517 1.178-2.357.875 3.048 1.578 6.143 2.105 9.27 0 2.925-8.418 13.825-15.541 22.285h.042z"/>
    </g>
    <defs>
        <clipPath id="clip0">
            <path fill="#fff" d="M0 0H50V40.646H0z" transform="translate(10 15)"/>
        </clipPath>
    </defs>
</svg>
